<mxfile host="app.diagrams.net" modified="2023-11-07T20:17:41.587Z" agent="Mozilla/5.0 (Windows NT 10.0; Win64; x64) AppleWebKit/537.36 (KHTML, like Gecko) Chrome/117.0.0.0 Safari/537.36" etag="tOJ-eFhf5VP5T5SXxCS3" version="22.0.8" type="device" pages="2">
  <diagram name="Page-1" id="J2AudScB5Za6cVXIH7Yi">
    <mxGraphModel dx="880" dy="478" grid="1" gridSize="10" guides="1" tooltips="1" connect="1" arrows="1" fold="1" page="1" pageScale="1" pageWidth="850" pageHeight="1100" math="0" shadow="0">
      <root>
        <mxCell id="0" />
        <mxCell id="1" parent="0" />
        <mxCell id="d3-JMZ6as-Er1f1TXYpK-1" value="Employee" style="rounded=0;whiteSpace=wrap;html=1;" vertex="1" parent="1">
          <mxGeometry x="180" y="210" width="120" height="60" as="geometry" />
        </mxCell>
        <mxCell id="d3-JMZ6as-Er1f1TXYpK-2" value="" style="endArrow=none;html=1;rounded=0;exitX=1;exitY=0.5;exitDx=0;exitDy=0;" edge="1" parent="1" source="d3-JMZ6as-Er1f1TXYpK-1">
          <mxGeometry width="50" height="50" relative="1" as="geometry">
            <mxPoint x="400" y="280" as="sourcePoint" />
            <mxPoint x="360" y="240" as="targetPoint" />
          </mxGeometry>
        </mxCell>
        <mxCell id="d3-JMZ6as-Er1f1TXYpK-3" value="" style="endArrow=none;html=1;rounded=0;" edge="1" parent="1">
          <mxGeometry width="50" height="50" relative="1" as="geometry">
            <mxPoint x="360" y="360" as="sourcePoint" />
            <mxPoint x="360" y="120" as="targetPoint" />
          </mxGeometry>
        </mxCell>
        <mxCell id="d3-JMZ6as-Er1f1TXYpK-8" value="Id" style="ellipse;whiteSpace=wrap;html=1;" vertex="1" parent="1">
          <mxGeometry x="420" y="90" width="90" height="60" as="geometry" />
        </mxCell>
        <mxCell id="d3-JMZ6as-Er1f1TXYpK-9" value="Name" style="ellipse;whiteSpace=wrap;html=1;" vertex="1" parent="1">
          <mxGeometry x="420" y="160" width="90" height="60" as="geometry" />
        </mxCell>
        <mxCell id="d3-JMZ6as-Er1f1TXYpK-10" value="Salary" style="ellipse;whiteSpace=wrap;html=1;" vertex="1" parent="1">
          <mxGeometry x="420" y="260" width="90" height="60" as="geometry" />
        </mxCell>
        <mxCell id="d3-JMZ6as-Er1f1TXYpK-11" value="Department" style="ellipse;whiteSpace=wrap;html=1;" vertex="1" parent="1">
          <mxGeometry x="420" y="330" width="90" height="60" as="geometry" />
        </mxCell>
        <mxCell id="d3-JMZ6as-Er1f1TXYpK-12" value="" style="endArrow=none;html=1;rounded=0;" edge="1" parent="1">
          <mxGeometry width="50" height="50" relative="1" as="geometry">
            <mxPoint x="510" y="359.5" as="sourcePoint" />
            <mxPoint x="570" y="359.5" as="targetPoint" />
          </mxGeometry>
        </mxCell>
        <mxCell id="d3-JMZ6as-Er1f1TXYpK-13" value="" style="endArrow=none;html=1;rounded=0;" edge="1" parent="1">
          <mxGeometry width="50" height="50" relative="1" as="geometry">
            <mxPoint x="570" y="360" as="sourcePoint" />
            <mxPoint x="570" y="310" as="targetPoint" />
          </mxGeometry>
        </mxCell>
        <mxCell id="d3-JMZ6as-Er1f1TXYpK-14" value="" style="endArrow=none;html=1;rounded=0;" edge="1" parent="1">
          <mxGeometry width="50" height="50" relative="1" as="geometry">
            <mxPoint x="570" y="410" as="sourcePoint" />
            <mxPoint x="570" y="360" as="targetPoint" />
          </mxGeometry>
        </mxCell>
        <mxCell id="d3-JMZ6as-Er1f1TXYpK-16" value="" style="endArrow=classic;html=1;rounded=0;" edge="1" parent="1">
          <mxGeometry width="50" height="50" relative="1" as="geometry">
            <mxPoint x="570" y="310" as="sourcePoint" />
            <mxPoint x="630" y="310" as="targetPoint" />
          </mxGeometry>
        </mxCell>
        <mxCell id="d3-JMZ6as-Er1f1TXYpK-17" value="" style="endArrow=classic;html=1;rounded=0;" edge="1" parent="1">
          <mxGeometry width="50" height="50" relative="1" as="geometry">
            <mxPoint x="570" y="410" as="sourcePoint" />
            <mxPoint x="630" y="410" as="targetPoint" />
          </mxGeometry>
        </mxCell>
        <mxCell id="d3-JMZ6as-Er1f1TXYpK-18" value="" style="endArrow=classic;html=1;rounded=0;" edge="1" parent="1">
          <mxGeometry width="50" height="50" relative="1" as="geometry">
            <mxPoint x="360" y="119.5" as="sourcePoint" />
            <mxPoint x="420" y="119.5" as="targetPoint" />
          </mxGeometry>
        </mxCell>
        <mxCell id="d3-JMZ6as-Er1f1TXYpK-19" value="" style="endArrow=classic;html=1;rounded=0;" edge="1" parent="1">
          <mxGeometry width="50" height="50" relative="1" as="geometry">
            <mxPoint x="360" y="189.5" as="sourcePoint" />
            <mxPoint x="420" y="189.5" as="targetPoint" />
          </mxGeometry>
        </mxCell>
        <mxCell id="d3-JMZ6as-Er1f1TXYpK-20" value="" style="endArrow=classic;html=1;rounded=0;" edge="1" parent="1">
          <mxGeometry width="50" height="50" relative="1" as="geometry">
            <mxPoint x="360" y="289.5" as="sourcePoint" />
            <mxPoint x="420" y="289.5" as="targetPoint" />
          </mxGeometry>
        </mxCell>
        <mxCell id="d3-JMZ6as-Er1f1TXYpK-21" value="" style="endArrow=classic;html=1;rounded=0;" edge="1" parent="1">
          <mxGeometry width="50" height="50" relative="1" as="geometry">
            <mxPoint x="360" y="359.5" as="sourcePoint" />
            <mxPoint x="420" y="359.5" as="targetPoint" />
          </mxGeometry>
        </mxCell>
        <mxCell id="d3-JMZ6as-Er1f1TXYpK-22" value="Id" style="ellipse;whiteSpace=wrap;html=1;" vertex="1" parent="1">
          <mxGeometry x="630" y="280" width="90" height="60" as="geometry" />
        </mxCell>
        <mxCell id="d3-JMZ6as-Er1f1TXYpK-23" value="Name" style="ellipse;whiteSpace=wrap;html=1;" vertex="1" parent="1">
          <mxGeometry x="630" y="380" width="90" height="60" as="geometry" />
        </mxCell>
        <mxCell id="d3-JMZ6as-Er1f1TXYpK-24" value="Medical receptionist" style="shape=umlActor;verticalLabelPosition=bottom;verticalAlign=top;html=1;outlineConnect=0;" vertex="1" parent="1">
          <mxGeometry x="150" y="600" width="30" height="60" as="geometry" />
        </mxCell>
        <mxCell id="d3-JMZ6as-Er1f1TXYpK-25" value="Nurse" style="shape=umlActor;verticalLabelPosition=bottom;verticalAlign=top;html=1;outlineConnect=0;" vertex="1" parent="1">
          <mxGeometry x="150" y="750" width="30" height="60" as="geometry" />
        </mxCell>
        <mxCell id="d3-JMZ6as-Er1f1TXYpK-26" value="Manager" style="shape=umlActor;verticalLabelPosition=bottom;verticalAlign=top;html=1;outlineConnect=0;" vertex="1" parent="1">
          <mxGeometry x="480" y="600" width="30" height="60" as="geometry" />
        </mxCell>
        <mxCell id="d3-JMZ6as-Er1f1TXYpK-27" value="Doctor" style="shape=umlActor;verticalLabelPosition=bottom;verticalAlign=top;html=1;outlineConnect=0;" vertex="1" parent="1">
          <mxGeometry x="480" y="750" width="30" height="60" as="geometry" />
        </mxCell>
        <mxCell id="d3-JMZ6as-Er1f1TXYpK-28" value="" style="endArrow=none;html=1;rounded=0;" edge="1" parent="1">
          <mxGeometry width="50" height="50" relative="1" as="geometry">
            <mxPoint x="195" y="630" as="sourcePoint" />
            <mxPoint x="285" y="600" as="targetPoint" />
          </mxGeometry>
        </mxCell>
        <mxCell id="d3-JMZ6as-Er1f1TXYpK-29" value="" style="endArrow=none;html=1;rounded=0;" edge="1" parent="1">
          <mxGeometry width="50" height="50" relative="1" as="geometry">
            <mxPoint x="195" y="630" as="sourcePoint" />
            <mxPoint x="285" y="670" as="targetPoint" />
          </mxGeometry>
        </mxCell>
        <mxCell id="d3-JMZ6as-Er1f1TXYpK-30" value="Register&lt;br&gt;Patient" style="ellipse;whiteSpace=wrap;html=1;" vertex="1" parent="1">
          <mxGeometry x="280" y="570" width="100" height="60" as="geometry" />
        </mxCell>
        <mxCell id="d3-JMZ6as-Er1f1TXYpK-31" value="View&amp;nbsp;&lt;br&gt;Personal Info" style="ellipse;whiteSpace=wrap;html=1;" vertex="1" parent="1">
          <mxGeometry x="280" y="640" width="100" height="60" as="geometry" />
        </mxCell>
        <mxCell id="d3-JMZ6as-Er1f1TXYpK-33" value="" style="endArrow=none;html=1;rounded=0;" edge="1" parent="1">
          <mxGeometry width="50" height="50" relative="1" as="geometry">
            <mxPoint x="195" y="780" as="sourcePoint" />
            <mxPoint x="285" y="750" as="targetPoint" />
          </mxGeometry>
        </mxCell>
        <mxCell id="d3-JMZ6as-Er1f1TXYpK-34" value="" style="endArrow=none;html=1;rounded=0;" edge="1" parent="1">
          <mxGeometry width="50" height="50" relative="1" as="geometry">
            <mxPoint x="195" y="780" as="sourcePoint" />
            <mxPoint x="285" y="820" as="targetPoint" />
          </mxGeometry>
        </mxCell>
        <mxCell id="d3-JMZ6as-Er1f1TXYpK-35" value="View record" style="ellipse;whiteSpace=wrap;html=1;" vertex="1" parent="1">
          <mxGeometry x="280" y="720" width="100" height="60" as="geometry" />
        </mxCell>
        <mxCell id="d3-JMZ6as-Er1f1TXYpK-36" value="Edit record" style="ellipse;whiteSpace=wrap;html=1;" vertex="1" parent="1">
          <mxGeometry x="280" y="790" width="100" height="60" as="geometry" />
        </mxCell>
        <mxCell id="d3-JMZ6as-Er1f1TXYpK-37" value="" style="endArrow=none;html=1;rounded=0;" edge="1" parent="1">
          <mxGeometry width="50" height="50" relative="1" as="geometry">
            <mxPoint x="380" y="670" as="sourcePoint" />
            <mxPoint x="470" y="640" as="targetPoint" />
          </mxGeometry>
        </mxCell>
        <mxCell id="d3-JMZ6as-Er1f1TXYpK-38" value="" style="endArrow=none;html=1;rounded=0;" edge="1" parent="1">
          <mxGeometry width="50" height="50" relative="1" as="geometry">
            <mxPoint x="380" y="820" as="sourcePoint" />
            <mxPoint x="470" y="790" as="targetPoint" />
          </mxGeometry>
        </mxCell>
        <mxCell id="d3-JMZ6as-Er1f1TXYpK-40" value="" style="endArrow=none;html=1;rounded=0;" edge="1" parent="1">
          <mxGeometry width="50" height="50" relative="1" as="geometry">
            <mxPoint x="380" y="750" as="sourcePoint" />
            <mxPoint x="470" y="790" as="targetPoint" />
          </mxGeometry>
        </mxCell>
        <mxCell id="d3-JMZ6as-Er1f1TXYpK-41" value="" style="endArrow=none;html=1;rounded=0;" edge="1" parent="1">
          <mxGeometry width="50" height="50" relative="1" as="geometry">
            <mxPoint x="380" y="890" as="sourcePoint" />
            <mxPoint x="470" y="790" as="targetPoint" />
          </mxGeometry>
        </mxCell>
        <mxCell id="d3-JMZ6as-Er1f1TXYpK-42" value="Setup&lt;br&gt;consultation" style="ellipse;whiteSpace=wrap;html=1;" vertex="1" parent="1">
          <mxGeometry x="280" y="860" width="100" height="60" as="geometry" />
        </mxCell>
        <mxCell id="d3-JMZ6as-Er1f1TXYpK-43" value="" style="endArrow=none;html=1;rounded=0;" edge="1" parent="1">
          <mxGeometry width="50" height="50" relative="1" as="geometry">
            <mxPoint x="510" y="630" as="sourcePoint" />
            <mxPoint x="600" y="600" as="targetPoint" />
          </mxGeometry>
        </mxCell>
        <mxCell id="d3-JMZ6as-Er1f1TXYpK-44" value="" style="endArrow=none;html=1;rounded=0;" edge="1" parent="1">
          <mxGeometry width="50" height="50" relative="1" as="geometry">
            <mxPoint x="510" y="630" as="sourcePoint" />
            <mxPoint x="600" y="670" as="targetPoint" />
          </mxGeometry>
        </mxCell>
        <mxCell id="d3-JMZ6as-Er1f1TXYpK-46" value="Export&lt;br&gt;statistics" style="ellipse;whiteSpace=wrap;html=1;" vertex="1" parent="1">
          <mxGeometry x="600" y="570" width="100" height="60" as="geometry" />
        </mxCell>
        <mxCell id="d3-JMZ6as-Er1f1TXYpK-47" value="Generate&lt;br&gt;report" style="ellipse;whiteSpace=wrap;html=1;" vertex="1" parent="1">
          <mxGeometry x="600" y="640" width="100" height="60" as="geometry" />
        </mxCell>
        <mxCell id="d3-JMZ6as-Er1f1TXYpK-48" value="" style="endArrow=none;html=1;rounded=0;" edge="1" parent="1" target="d3-JMZ6as-Er1f1TXYpK-47">
          <mxGeometry width="50" height="50" relative="1" as="geometry">
            <mxPoint x="510" y="780" as="sourcePoint" />
            <mxPoint x="560" y="730" as="targetPoint" />
          </mxGeometry>
        </mxCell>
      </root>
    </mxGraphModel>
  </diagram>
  <diagram id="0QycjJrKd94fUD1it6tQ" name="Page-2">
    <mxGraphModel dx="880" dy="478" grid="1" gridSize="10" guides="1" tooltips="1" connect="1" arrows="1" fold="1" page="1" pageScale="1" pageWidth="850" pageHeight="1100" math="0" shadow="0">
      <root>
        <mxCell id="0" />
        <mxCell id="1" parent="0" />
        <mxCell id="ah6mAZd3qtKUApywoLlv-1" value="&amp;lt;&amp;lt;system&amp;gt;&amp;gt;&lt;br&gt;Mentcare" style="rounded=0;whiteSpace=wrap;html=1;" vertex="1" parent="1">
          <mxGeometry x="365" y="560" width="120" height="60" as="geometry" />
        </mxCell>
        <mxCell id="ah6mAZd3qtKUApywoLlv-2" value="" style="endArrow=none;html=1;rounded=0;" edge="1" parent="1">
          <mxGeometry width="50" height="50" relative="1" as="geometry">
            <mxPoint x="425" y="560" as="sourcePoint" />
            <mxPoint x="425" y="480" as="targetPoint" />
          </mxGeometry>
        </mxCell>
        <mxCell id="ah6mAZd3qtKUApywoLlv-3" value="" style="endArrow=none;html=1;rounded=0;" edge="1" parent="1">
          <mxGeometry width="50" height="50" relative="1" as="geometry">
            <mxPoint x="424" y="700" as="sourcePoint" />
            <mxPoint x="424" y="620" as="targetPoint" />
          </mxGeometry>
        </mxCell>
        <mxCell id="ah6mAZd3qtKUApywoLlv-4" value="" style="endArrow=none;html=1;rounded=0;" edge="1" parent="1">
          <mxGeometry width="50" height="50" relative="1" as="geometry">
            <mxPoint x="470" y="520" as="sourcePoint" />
            <mxPoint x="470" y="560" as="targetPoint" />
          </mxGeometry>
        </mxCell>
        <mxCell id="ah6mAZd3qtKUApywoLlv-5" value="" style="endArrow=none;html=1;rounded=0;" edge="1" parent="1">
          <mxGeometry width="50" height="50" relative="1" as="geometry">
            <mxPoint x="470" y="620" as="sourcePoint" />
            <mxPoint x="470" y="660" as="targetPoint" />
          </mxGeometry>
        </mxCell>
        <mxCell id="ah6mAZd3qtKUApywoLlv-6" value="" style="endArrow=none;html=1;rounded=0;" edge="1" parent="1">
          <mxGeometry width="50" height="50" relative="1" as="geometry">
            <mxPoint x="380" y="520" as="sourcePoint" />
            <mxPoint x="380" y="560" as="targetPoint" />
          </mxGeometry>
        </mxCell>
        <mxCell id="ah6mAZd3qtKUApywoLlv-7" value="" style="endArrow=none;html=1;rounded=0;" edge="1" parent="1">
          <mxGeometry width="50" height="50" relative="1" as="geometry">
            <mxPoint x="380" y="620" as="sourcePoint" />
            <mxPoint x="380" y="660" as="targetPoint" />
          </mxGeometry>
        </mxCell>
        <mxCell id="ah6mAZd3qtKUApywoLlv-9" value="" style="endArrow=none;html=1;rounded=0;" edge="1" parent="1">
          <mxGeometry width="50" height="50" relative="1" as="geometry">
            <mxPoint x="470" y="520" as="sourcePoint" />
            <mxPoint x="550" y="520" as="targetPoint" />
          </mxGeometry>
        </mxCell>
        <mxCell id="ah6mAZd3qtKUApywoLlv-10" value="" style="endArrow=none;html=1;rounded=0;" edge="1" parent="1">
          <mxGeometry width="50" height="50" relative="1" as="geometry">
            <mxPoint x="470" y="660" as="sourcePoint" />
            <mxPoint x="550" y="660" as="targetPoint" />
          </mxGeometry>
        </mxCell>
        <mxCell id="ah6mAZd3qtKUApywoLlv-11" value="" style="endArrow=none;html=1;rounded=0;" edge="1" parent="1">
          <mxGeometry width="50" height="50" relative="1" as="geometry">
            <mxPoint x="300" y="520" as="sourcePoint" />
            <mxPoint x="380" y="520" as="targetPoint" />
          </mxGeometry>
        </mxCell>
        <mxCell id="ah6mAZd3qtKUApywoLlv-12" value="" style="endArrow=none;html=1;rounded=0;" edge="1" parent="1">
          <mxGeometry width="50" height="50" relative="1" as="geometry">
            <mxPoint x="300" y="660" as="sourcePoint" />
            <mxPoint x="380" y="660" as="targetPoint" />
          </mxGeometry>
        </mxCell>
        <mxCell id="ah6mAZd3qtKUApywoLlv-13" value="&amp;lt;&amp;lt;system&amp;gt;&amp;gt;&lt;br&gt;Management&lt;br&gt;reporting system" style="rounded=0;whiteSpace=wrap;html=1;" vertex="1" parent="1">
          <mxGeometry x="180" y="490" width="120" height="60" as="geometry" />
        </mxCell>
        <mxCell id="ah6mAZd3qtKUApywoLlv-14" value="&amp;lt;&amp;lt;system&amp;gt;&amp;gt;&lt;br&gt;HC statistics&lt;br&gt;system" style="rounded=0;whiteSpace=wrap;html=1;" vertex="1" parent="1">
          <mxGeometry x="180" y="630" width="120" height="60" as="geometry" />
        </mxCell>
        <mxCell id="ah6mAZd3qtKUApywoLlv-15" value="&amp;lt;&amp;lt;system&amp;gt;&amp;gt;&lt;br&gt;Patient record&lt;br&gt;system" style="rounded=0;whiteSpace=wrap;html=1;" vertex="1" parent="1">
          <mxGeometry x="365" y="420" width="120" height="60" as="geometry" />
        </mxCell>
        <mxCell id="ah6mAZd3qtKUApywoLlv-16" value="&amp;lt;&amp;lt;system&amp;gt;&amp;gt;&lt;br&gt;Admissions&lt;br&gt;system" style="rounded=0;whiteSpace=wrap;html=1;" vertex="1" parent="1">
          <mxGeometry x="550" y="490" width="120" height="60" as="geometry" />
        </mxCell>
        <mxCell id="ah6mAZd3qtKUApywoLlv-17" value="&amp;lt;&amp;lt;system&amp;gt;&amp;gt;&lt;br&gt;Prescription&lt;br&gt;system" style="rounded=0;whiteSpace=wrap;html=1;" vertex="1" parent="1">
          <mxGeometry x="550" y="630" width="120" height="60" as="geometry" />
        </mxCell>
        <mxCell id="ah6mAZd3qtKUApywoLlv-18" value="&amp;lt;&amp;lt;system&amp;gt;&amp;gt;&lt;br&gt;Appointments&lt;br&gt;system" style="rounded=0;whiteSpace=wrap;html=1;" vertex="1" parent="1">
          <mxGeometry x="365" y="700" width="120" height="60" as="geometry" />
        </mxCell>
      </root>
    </mxGraphModel>
  </diagram>
</mxfile>
